<svg width="30" height="30" viewBox="0 0 30 30" fill="none" xmlns="http://www.w3.org/2000/svg">
<g clip-path="url(#clip0_1005_1636)">
<path d="M14.9999 23.8511C19.8005 23.8511 23.6922 19.9323 23.6922 15.0982C23.6922 10.264 19.8005 6.34521 14.9999 6.34521C10.1993 6.34521 6.30762 10.264 6.30762 15.0982C6.30762 19.9323 10.1993 23.8511 14.9999 23.8511Z" fill="#FFEB3C"/>
<path d="M14.9999 0.882324L13.1128 4.1735H16.8871L14.9999 0.882324Z" fill="#FFEB3C"/>
<path d="M29.1176 15.097L25.8496 16.9974V13.1978L29.1176 15.097Z" fill="#FFEB3C"/>
<path d="M0.882324 15.097L4.15034 16.9974V13.1978L0.882324 15.097Z" fill="#FFEB3C"/>
<path d="M5.01733 5.0459L5.99344 8.71649L8.66255 6.02972L5.01733 5.0459Z" fill="#FFEB3C"/>
<path d="M24.9826 5.0459L21.3374 6.02972L24.0065 8.71649L24.9826 5.0459Z" fill="#FFEB3C"/>
<path d="M14.9999 29.1178L13.1128 25.8267H16.8871L14.9999 29.1178Z" fill="#FFEB3C"/>
<path d="M5.01733 24.9543L5.99344 21.2837L8.66255 23.9705L5.01733 24.9543Z" fill="#FFEB3C"/>
<path d="M24.9826 24.9543L21.3374 23.9705L24.0065 21.2837L24.9826 24.9543Z" fill="#FFEB3C"/>
</g>
<defs>
<clipPath id="clip0_1005_1636">
<rect width="30" height="30" fill="white"/>
</clipPath>
</defs>
</svg>
